<svg width="24" height="24" viewBox="0 0 24 24" fill="none" xmlns="http://www.w3.org/2000/svg">
<path d="M23.9243 19.7954C23.8763 19.6499 23.8108 19.5129 23.731 19.38L23.6641 19.2681L23.5809 19.1982C23.5228 19.1379 23.0625 18.6142 22.4602 17.0116C21.8193 15.3066 21.0188 12.3868 20.3482 7.53884H20.3475C20.1278 5.42516 19.1293 3.54277 17.6462 2.18968C16.1583 0.830517 14.1721 -0.000658003 12.0007 3.90856e-07C9.82865 -0.000658003 7.8425 0.830517 6.35394 2.18968C4.87142 3.54277 3.87222 5.42516 3.65322 7.53884H3.65257C2.938 12.7029 2.07611 15.6796 1.41695 17.3297C1.0877 18.1551 0.809869 18.6481 0.630056 18.9187C0.540806 19.0544 0.475931 19.1344 0.441431 19.1744C0.42929 19.188 0.422493 19.1955 0.418462 19.1996L0.336665 19.268L0.269727 19.38C0.189992 19.5129 0.124414 19.6499 0.0770698 19.7954C0.0290696 19.9402 7.03422e-06 20.0955 7.03422e-06 20.2569C-0.000649218 20.4485 0.0446322 20.6462 0.127789 20.8148C0.200117 20.9633 0.297477 21.0875 0.400883 21.1868C0.584072 21.3604 0.779494 21.4642 0.968776 21.5408C1.25336 21.6537 1.53597 21.7076 1.80634 21.7419C2.07541 21.7748 2.33162 21.7843 2.54795 21.785C2.57903 21.7843 2.60945 21.7843 2.63917 21.7843L2.64461 21.7836H2.64663H2.65609C2.77169 21.7843 2.85213 21.7992 2.92174 21.8219C2.98258 21.8419 3.03667 21.8684 3.09414 21.9056C3.19418 21.9701 3.30639 22.0739 3.43755 22.22C3.53557 22.3282 3.64375 22.4584 3.77013 22.5985C3.86547 22.7033 3.97094 22.8148 4.09394 22.9247C4.27779 23.0892 4.50429 23.2526 4.78076 23.3706C5.05657 23.4896 5.37837 23.5578 5.72183 23.5571C5.97936 23.5571 6.22208 23.5239 6.4438 23.4615C6.63781 23.4073 6.81495 23.3303 6.97175 23.2424C7.24691 23.0877 7.45714 22.9019 7.6295 22.7371C7.75864 22.613 7.86749 22.4991 7.96616 22.4041C8.03985 22.3329 8.10744 22.2726 8.1703 22.223C8.26565 22.1498 8.3481 22.1006 8.44209 22.065C8.53673 22.0304 8.64759 22.0061 8.81456 22.0054C8.92476 22.0061 9.00252 22.022 9.07349 22.0467C9.1357 22.0691 9.19378 22.0996 9.25804 22.1437C9.3689 22.2207 9.49532 22.3458 9.63726 22.5126C9.74409 22.6367 9.85968 22.7822 9.9915 22.9375C10.1896 23.1691 10.4268 23.4276 10.7595 23.6412C10.9251 23.747 11.115 23.8393 11.3246 23.9026C11.5342 23.966 11.7626 24 12.0006 24C12.2764 24.0007 12.5401 23.9539 12.776 23.8701C12.9829 23.7966 13.1674 23.6958 13.327 23.5839C13.6082 23.3868 13.8178 23.16 13.9956 22.9531C14.1295 22.7974 14.2451 22.6509 14.3525 22.5255C14.5135 22.3352 14.654 22.1983 14.7757 22.1219C14.8372 22.0826 14.894 22.0561 14.9576 22.0368C15.0205 22.0181 15.0915 22.0053 15.1868 22.0053C15.3159 22.0053 15.4112 22.0209 15.491 22.0433C15.5613 22.063 15.6208 22.0887 15.6809 22.1223C15.785 22.1809 15.8946 22.2685 16.0243 22.3946C16.1223 22.4882 16.2305 22.6008 16.3583 22.7245C16.4543 22.8175 16.5618 22.9155 16.6855 23.0125C16.8714 23.1576 17.0985 23.2994 17.3683 23.4001C17.638 23.5012 17.9463 23.5578 18.2789 23.5571C18.5446 23.5571 18.7974 23.5177 19.0259 23.4431C19.226 23.3787 19.4071 23.2892 19.5647 23.1874C19.8412 23.0084 20.0474 22.7995 20.2177 22.6123C20.3448 22.4716 20.4537 22.341 20.553 22.2311C20.6274 22.1484 20.6957 22.0779 20.7592 22.0205C20.8552 21.9344 20.9363 21.8805 21.0195 21.8442C21.104 21.8085 21.1953 21.7848 21.3446 21.7835L21.3568 21.7841H21.3615H21.3662C21.3919 21.7841 21.421 21.7841 21.4528 21.7841C21.6407 21.7841 21.8597 21.7767 22.091 21.7533C22.2647 21.7353 22.4452 21.7082 22.6277 21.6658C22.7649 21.6335 22.9042 21.5925 23.0435 21.5359C23.1482 21.4931 23.2537 21.4416 23.3592 21.3748C23.5154 21.2748 23.6749 21.1378 23.7999 20.9431C23.8621 20.8464 23.9142 20.7363 23.9486 20.6189C23.9831 20.5016 24 20.3778 24 20.2567C24.0001 20.0955 23.971 19.9409 23.9243 19.7954ZM21.9639 20.207C21.7909 20.2264 21.6083 20.2331 21.4529 20.2331C21.4285 20.2331 21.4028 20.2325 21.3758 20.2325C21.3657 20.2325 21.3562 20.2325 21.3447 20.2325C21.0797 20.2318 20.8282 20.2718 20.6004 20.3464C20.401 20.4115 20.2219 20.5018 20.065 20.6035C19.7906 20.7832 19.5871 20.9911 19.4181 21.1779C19.291 21.318 19.1828 21.4479 19.0842 21.5574C19.0098 21.6391 18.9415 21.7097 18.878 21.7666C18.7813 21.8527 18.6994 21.9071 18.6136 21.9436C18.5271 21.9799 18.4317 22.0047 18.279 22.0054C18.1498 22.0054 18.0538 21.9898 17.9741 21.9681C17.9037 21.9477 17.8443 21.9223 17.7841 21.8887C17.68 21.8304 17.5712 21.7422 17.4407 21.6168C17.3427 21.5232 17.2345 21.4099 17.1068 21.2864C17.0108 21.1935 16.9039 21.0952 16.7796 20.9982C16.5936 20.8531 16.3672 20.7117 16.0968 20.611C15.8271 20.5099 15.5195 20.4536 15.1869 20.4543C14.911 20.454 14.6474 20.5004 14.4115 20.5845C14.2046 20.6578 14.0201 20.7582 13.8599 20.8704C13.5786 21.0681 13.3691 21.2943 13.1913 21.5011C13.0581 21.6568 12.9418 21.8033 12.835 21.9291C12.6741 22.119 12.5335 22.256 12.4112 22.3323C12.3496 22.3716 12.2929 22.398 12.23 22.417C12.1671 22.4367 12.0954 22.4485 12.0008 22.4485C11.8899 22.4482 11.8122 22.4323 11.7412 22.4075C11.679 22.3851 11.6209 22.3553 11.5574 22.3106C11.4458 22.2336 11.3194 22.1084 11.1774 21.9419C11.0706 21.8175 10.9557 21.672 10.8239 21.517C10.6251 21.2857 10.3878 21.0266 10.0552 20.8133C9.88959 20.7072 9.70026 20.615 9.49007 20.5515C9.28049 20.4881 9.05202 20.4542 8.8147 20.4542C8.55716 20.4542 8.31444 20.4871 8.09272 20.5495C7.89871 20.6041 7.72157 20.6807 7.56472 20.7689C7.28961 20.9235 7.07938 21.1094 6.90697 21.2735C6.77788 21.3979 6.66903 21.5122 6.57031 21.6072C6.49662 21.6784 6.42903 21.7388 6.36612 21.7876C6.27078 21.8619 6.18833 21.9103 6.09439 21.9456C5.9997 21.9806 5.88889 22.005 5.72192 22.0053C5.60361 22.0053 5.51979 21.9897 5.44812 21.9666C5.38521 21.946 5.33046 21.9199 5.27168 21.8819C5.17024 21.8175 5.05807 21.7133 4.92692 21.5682C4.8289 21.4607 4.72142 21.3312 4.5957 21.1918C4.50171 21.087 4.39694 20.9765 4.27455 20.8666C4.09277 20.7018 3.86829 20.5384 3.59318 20.4197C3.31868 20.3 2.99824 20.2315 2.65624 20.2325C2.64808 20.2325 2.63458 20.2325 2.617 20.2325C2.59469 20.2331 2.57172 20.2331 2.54805 20.2331C2.40133 20.2331 2.23098 20.2271 2.06669 20.2101C1.94434 20.1972 1.82467 20.1789 1.72394 20.1552C1.69961 20.1494 1.67664 20.1436 1.65433 20.1372C1.72867 20.047 1.81722 19.93 1.91865 19.7767C2.29178 19.2117 2.83263 18.1734 3.41941 16.2937C4.00624 14.414 4.63896 11.6916 5.18454 7.75244L5.18656 7.73819L5.18792 7.72324C5.36168 5.99072 6.17694 4.44947 7.39517 3.33782C8.61332 2.22692 10.2243 1.55174 12.0008 1.55141C13.7768 1.55174 15.3884 2.22692 16.6066 3.33782C17.8234 4.44947 18.6387 5.99072 18.8131 7.72324L18.8145 7.73819L18.8165 7.75244C19.5446 13.004 20.4254 16.0939 21.1488 17.9065C21.5104 18.8129 21.8336 19.4003 22.0823 19.7767C22.1837 19.9299 22.2716 20.0466 22.3466 20.1368C22.2418 20.166 22.1066 20.1918 21.9639 20.207Z" fill="#4B4B4B"/>
<path d="M9.92881 8.64307C9.38056 8.64307 8.93506 9.08932 8.93506 9.64006C8.93506 10.1911 9.38056 10.6377 9.92881 10.6377C10.4777 10.6377 10.9232 10.1911 10.9232 9.64006C10.9232 9.08927 10.4777 8.64307 9.92881 8.64307Z" fill="#4B4B4B"/>
<path d="M13.8414 8.64307C13.2925 8.64307 12.8477 9.08932 12.8477 9.64006C12.8477 10.1911 13.2925 10.6377 13.8414 10.6377C14.3903 10.6377 14.8352 10.1911 14.8352 9.64006C14.8352 9.08927 14.3903 8.64307 13.8414 8.64307Z" fill="#4B4B4B"/>
</svg>
