<svg width="24" height="24" viewBox="0 0 24 24" fill="none" xmlns="http://www.w3.org/2000/svg">
<path d="M17.6872 16.8575L12.8157 0.746864C12.6791 0.294811 12.357 0 12 0C11.643 0 11.3209 0.294811 11.1843 0.746864L6.31284 16.8575C2.55455 17.4991 0 18.7564 0 20.2023C0 22.2996 5.37244 24 12 24C18.6276 24 24 22.2995 24 20.2023C24 18.7564 21.4455 17.4991 17.6872 16.8575ZM13.7825 19.4898C13.7818 20.0396 13.4576 20.4846 13.0567 20.4851H10.8892C10.4883 20.4846 10.1641 20.0396 10.1634 19.4898V17.4008C10.1641 16.851 10.488 16.4055 10.8892 16.405H13.0567C13.458 16.4055 13.7818 16.851 13.7825 17.4008V19.4898Z" fill="#4B4B4B"/>
<path d="M10.8891 17.3953L10.8857 17.4008V18.0489H11.5818V18.8412H10.8857V19.4897L10.8891 19.4949H13.0566L13.06 19.4897V17.4008L13.0566 17.3953H10.8891Z" fill="#4B4B4B"/>
</svg>
