<svg width="24" height="24" viewBox="0 0 24 24" fill="none" xmlns="http://www.w3.org/2000/svg">
<path d="M17.1709 1.76562C15.6344 1.53873 14.1635 1.87544 13.0938 2.09166V0.557439C13.0938 0.249465 12.8676 0 12.5888 0H11.4108C11.1323 0 10.9062 0.249413 10.9062 0.557439V2.09166C9.83644 1.87544 8.36555 1.53873 6.82866 1.76562C1.52869 2.54871 0 6.66027 0 11.503C0 17.4716 3.57173 22.0157 8.48386 23.4897C9.59583 23.8231 10.7768 24 12 24C13.2232 24 14.4041 23.8231 15.5157 23.4897C20.4283 22.0157 24 17.4716 24 11.503C24 6.66027 22.4713 2.54871 17.1709 1.76562ZM17.1787 6.34085L19.4857 9.88643L14.607 10.4492L17.1787 6.34085ZM11.9388 10.0372L13.4865 12.1972C13.3029 12.1972 10.3467 12.1972 10.3467 12.1972L11.9388 10.0372ZM6.56545 6.34085L9.13683 10.4492L4.25841 9.88643L6.56545 6.34085ZM16.6459 19.9146V18.7502H14.5399V20.7661C13.1024 21.1973 11.9945 21.2617 11.9945 21.2617C11.9945 21.2617 10.9515 21.2989 9.57478 20.9684V18.7503H7.46836V20.2075C5.3827 19.1606 3.2978 17.0792 2.98931 12.9435C2.98931 12.9435 4.158 13.5161 7.01897 13.8756V16.0774H9.71086V14.105C10.3842 14.1402 11.1847 14.1607 12.0135 14.1607C12.9515 14.1607 13.7498 14.1345 14.5912 14.0903V16.0775H17.1992V13.8388C19.8915 13.4785 20.979 12.9435 20.979 12.9435C20.8906 16.7155 18.792 18.7838 16.6459 19.9146Z" fill="#4B4B4B"/>
</svg>
