<svg width="24" height="24" viewBox="0 0 24 24" fill="none" xmlns="http://www.w3.org/2000/svg">
<path d="M7.10764 16.7295C6.72148 16.7295 6.40967 17.1584 6.40967 17.6878C6.40967 18.2168 6.72143 18.6452 7.10764 18.6452C7.49309 18.6452 7.8056 18.2168 7.8056 17.6878C7.8056 17.1584 7.49304 16.7295 7.10764 16.7295Z" fill="#4B4B4B"/>
<path d="M10.7463 17.8398C10.3609 17.8398 10.0483 18.2683 10.0483 18.7972C10.0483 19.3266 10.3609 19.7555 10.7463 19.7555C11.1318 19.7555 11.4443 19.3266 11.4443 18.7972C11.4443 18.2682 11.1318 17.8398 10.7463 17.8398Z" fill="#4B4B4B"/>
<path d="M20.5527 9.95117C20.5527 9.95117 20.5527 9.95117 20.5527 9.95169C20.5535 9.95169 20.5535 9.95169 20.5535 9.95169L20.5527 9.95117Z" fill="#4B4B4B"/>
<path d="M20.5454 9.94556L20.5529 9.95122C20.5529 9.95122 20.5529 9.9507 20.5522 9.9507L20.5454 9.94556Z" fill="#4B4B4B"/>
<path d="M21.3843 6.25854C21.3843 6.25854 21.3843 6.25854 21.3843 6.25906H21.385L21.3843 6.25854Z" fill="#4B4B4B"/>
<path d="M21.377 6.2522L21.3845 6.25837C21.3845 6.25837 21.3845 6.25786 21.3837 6.25786L21.377 6.2522Z" fill="#4B4B4B"/>
<path d="M22.8329 11.0571C23.4355 11.1483 23.9569 10.8142 23.9975 10.309C24.038 9.80377 23.5835 9.32022 22.9817 9.22842C22.8089 9.20211 22.6451 9.21401 22.4948 9.25158L21.8464 7.26168L21.8382 7.24263C21.8141 7.18744 21.7773 7.03691 21.7255 6.85853C21.6985 6.76886 21.6654 6.66935 21.6143 6.56417C21.564 6.46009 21.4918 6.34507 21.3844 6.259C21.2394 6.14199 21.0763 6.08377 20.9141 6.08377C20.7586 6.08377 20.6023 6.13736 20.4625 6.24459L20.4415 6.26003L19.0208 7.68128C18.8179 5.25884 17.73 3.25298 15.7233 2.58121C13.4482 1.81976 11.2822 2.75643 9.65482 4.63145L9.4009 0.793351L9.3716 0.708825C9.23112 0.308257 8.9501 0.0623334 8.64134 0.00977781C8.60149 0.00308775 8.56095 0 8.5211 0C8.25288 0.00102924 7.99217 0.145316 7.80659 0.428421L7.79679 0.443345L7.10182 1.68216C6.95304 1.63212 6.78401 1.60742 6.60373 1.62182C6.04699 1.66724 5.61045 2.03892 5.62779 2.45133C5.64579 2.86534 6.11089 3.16324 6.66757 3.11898C6.97338 3.09422 7.2401 2.96897 7.41813 2.79471L7.43693 2.81536L7.49028 2.72099C7.53837 2.66071 7.57292 2.59471 7.59921 2.52717L8.38282 1.12959C8.40687 1.09247 8.46021 1.05484 8.52106 1.05587L8.5481 1.05793C8.5977 1.06565 8.62849 1.09344 8.65029 1.12136L8.94406 5.56259C8.50606 6.21005 8.12365 6.9318 7.80804 7.70869L6.28287 3.91028L6.27987 3.91233C6.14614 3.52367 5.88167 3.24886 5.5699 3.18955C5.52781 3.18183 5.48571 3.17771 5.44292 3.17771C5.1604 3.17771 4.89143 3.35449 4.71415 3.66281L4.7051 3.67773L4.02214 5.05318C3.83206 4.93823 3.60139 4.86921 3.34971 4.86921C2.71184 4.86921 2.19565 5.30226 2.19565 5.83682C2.19565 6.37138 2.71184 6.80444 3.34971 6.80444C3.92145 6.80444 4.39254 6.45494 4.48418 5.99712L5.32039 4.31445C5.35123 4.26285 5.39557 4.23352 5.44287 4.23352L5.46462 4.23558C5.52171 4.24639 5.56906 4.29695 5.5916 4.36912L5.59915 4.39486L7.39704 8.8743C7.23176 9.4254 7.09948 9.99604 7.00259 10.5801L4.84179 7.53442L4.84029 7.53648C4.66371 7.27358 4.41729 7.12247 4.15812 7.12202L4.09798 7.12511C4.09723 7.12511 4.09723 7.12511 4.09648 7.12511L4.09198 7.12562V7.12665C3.80721 7.15341 3.54654 7.3581 3.38651 7.68392L1.7757 10.9529C1.58258 10.8596 1.3512 10.8142 1.10328 10.8379C0.467654 10.8982 -0.0259864 11.3792 0.00106043 11.9128C0.0281073 12.4463 0.565294 12.8289 1.20167 12.768C1.49018 12.7407 1.74636 12.6237 1.94098 12.4572L1.95598 12.4716L1.97853 12.4268C2.16865 12.2505 2.28509 12.0221 2.29784 11.7782L4.02364 8.2747C4.05223 8.21797 4.09728 8.18291 4.14612 8.17879L4.14912 8.17828H4.15137L4.15812 8.17783C4.20317 8.17783 4.24676 8.2051 4.27756 8.25206L4.28356 8.26184L6.84856 11.8772C6.82151 12.2644 6.81026 12.6551 6.81626 13.0485L5.81473 11.8541L5.81398 11.8556C5.56756 11.5412 5.25204 11.3808 4.93873 11.3813C4.61037 11.3808 4.27901 11.555 4.02964 11.8984L4.00929 11.9262L2.02207 15.6282C1.86204 15.5581 1.68326 15.5148 1.49014 15.5148C0.852263 15.5148 0.336123 15.9478 0.336123 16.4824C0.336123 17.017 0.852263 17.45 1.49014 17.45C2.12726 17.45 2.64415 17.0169 2.64415 16.4824C2.64415 16.4175 2.6359 16.354 2.6209 16.2927L4.58332 12.6355C4.68401 12.504 4.8095 12.4375 4.93873 12.437C5.06867 12.4375 5.1949 12.5015 5.29629 12.634L5.30384 12.6438L6.81021 14.4404C5.63215 14.6456 4.72306 16.0179 4.72306 17.6897C4.72306 19.4951 5.78843 20.9629 7.10773 20.9629C7.67726 20.9629 8.2002 20.688 8.6081 20.2288C8.98906 21.3217 9.80041 22.0712 10.7471 22.0712C12.0506 22.0712 13.1107 20.6293 13.1295 18.8461L13.1325 18.8528C13.3241 18.7518 13.5097 18.643 13.6915 18.5306L17.08 17.665L17.1085 17.6506C17.1678 17.6217 17.2264 17.6084 17.2843 17.6084C17.4864 17.6089 17.6764 17.7749 17.7591 18.0445L18.5037 22.6688C18.4796 22.7364 18.4624 22.807 18.4571 22.8817C18.4218 23.4137 18.9071 23.9097 19.5428 23.9891C20.1776 24.069 20.7208 23.702 20.7562 23.1694C20.7915 22.6374 20.3061 22.1415 19.6705 22.062C19.5037 22.0409 19.3444 22.0522 19.1979 22.0879L18.4947 17.7198L18.4841 17.6827C18.2873 16.9836 17.8012 16.5521 17.2843 16.5527C17.1588 16.5527 17.0319 16.5831 16.9079 16.6357V16.6352L15.6456 16.9573C15.8936 16.7037 16.1325 16.4418 16.3534 16.1665L18.9266 14.2401L19.004 14.2127L19.0679 14.2308C19.1137 14.2586 19.1476 14.3133 19.1596 14.3798L19.9425 18.6458C19.9282 18.6916 19.9139 18.738 19.9079 18.7881C19.8463 19.3154 20.3053 19.8558 20.9349 19.9949C21.5645 20.1341 22.1242 19.8191 22.1866 19.2912C22.2483 18.7634 21.7885 18.2236 21.1596 18.0844C20.9733 18.0432 20.7952 18.0462 20.6321 18.0782L19.9057 14.1221C19.8358 13.739 19.6405 13.4225 19.3767 13.2642C19.258 13.1925 19.1303 13.157 19.0041 13.157C18.85 13.157 18.6968 13.2096 18.5586 13.3132L17.7877 13.89C18.0078 13.4379 18.1987 12.976 18.3618 12.5084L20.0116 10.8577L20.0823 10.8325L20.1378 10.8531C20.1483 10.8773 20.1619 10.9108 20.1762 10.9536C20.2168 11.0722 20.2626 11.2408 20.3054 11.4098C20.349 11.58 20.3888 11.7496 20.4279 11.8939L20.4271 11.8924L21.1875 14.7237C21.2243 15.1871 21.6277 15.6475 22.1747 15.8084C22.7975 15.9918 23.3693 15.7176 23.4512 15.1949C23.5323 14.6721 23.0943 14.0999 22.4707 13.9164C22.2257 13.8437 21.9891 13.8446 21.787 13.9014L21.1491 11.5274V11.5259C21.1025 11.3573 21.0349 11.0573 20.9553 10.7737C20.9147 10.6304 20.8711 10.4896 20.817 10.3556C20.7892 10.2881 20.7592 10.2221 20.7201 10.1545C20.6803 10.0885 20.6322 10.017 20.5525 9.95192C20.4075 9.8349 20.2445 9.77611 20.0822 9.77669C19.9267 9.77669 19.7704 9.83027 19.6307 9.93751L19.6096 9.95294L18.8434 10.7199C18.9569 10.1275 19.023 9.5388 19.0463 8.96243L20.8435 7.1648L20.9141 7.13958L20.9794 7.16383C20.9922 7.19111 21.0148 7.25608 21.0403 7.35199C21.068 7.45151 21.1004 7.57521 21.1507 7.71235L21.15 7.71287L21.8449 9.84307C21.8329 9.88637 21.8209 9.92966 21.8171 9.97604C21.7766 10.4811 22.2311 10.9648 22.8329 11.0571ZM9.23407 16.219L9.25962 16.2365C9.25512 16.2406 9.25057 16.2437 9.24687 16.2484C9.24307 16.2381 9.23777 16.2293 9.23407 16.219ZM8.25059 19.2575C7.95837 19.6586 7.55412 19.907 7.10782 19.907C6.66157 19.907 6.25732 19.6586 5.96506 19.2575C5.67284 18.8512 5.49246 18.3022 5.49246 17.6897C5.49246 17.0722 5.67279 16.5232 5.96506 16.1164C6.25732 15.7153 6.66153 15.4674 7.10782 15.4674C7.55412 15.4674 7.95832 15.7153 8.25059 16.1164C8.45796 16.4071 8.60824 16.7659 8.67734 17.1722C8.47751 17.6527 8.36177 18.2017 8.36177 18.7982C8.36177 18.8878 8.36553 18.9776 8.36928 19.0678C8.33473 19.1364 8.29268 19.1998 8.25059 19.2575ZM11.8892 20.3663C11.5969 20.7674 11.1927 21.0154 10.7472 21.0154C10.3009 21.0154 9.89674 20.7675 9.60448 20.3663C9.39635 20.0812 9.24307 19.7168 9.17773 19.3105C9.14693 19.1466 9.13113 18.9724 9.13113 18.7981C9.13113 18.3919 9.20852 18.017 9.35051 17.6897C9.38506 17.5949 9.4309 17.5047 9.48499 17.4207C9.51959 17.3521 9.56238 17.2887 9.60448 17.2304C9.8967 16.8242 10.3009 16.5808 10.7472 16.5808C11.1928 16.5808 11.5969 16.8242 11.8892 17.2304C12.1815 17.6315 12.3626 18.1805 12.3626 18.7981C12.3626 19.4106 12.1815 19.9648 11.8892 20.3663Z" fill="#4B4B4B"/>
</svg>
